<svg id="Layer_1" data-name="Layer 1" xmlns="http://www.w3.org/2000/svg" xmlns:xlink="http://www.w3.org/1999/xlink" viewBox="0 0 32 32"><defs><style>.cls-1{fill:url(#linear-gradient);}.cls-2{fill:#fff;}</style><linearGradient id="linear-gradient" x1="-2.13" y1="18.99" x2="41.07" y2="18.99" gradientTransform="matrix(1, 0, 0, -1, 0, 34.84)" gradientUnits="userSpaceOnUse"><stop offset="0" stop-color="#5190d4"/><stop offset="1" stop-color="#d21297"/></linearGradient></defs><rect class="cls-1" y="-0.15" width="32" height="32" rx="5"/><path class="cls-2" d="M18.25,16.37H15.1a8.5,8.5,0,0,1-3.29-.59,5.47,5.47,0,0,1-2.26-1.65,3.9,3.9,0,0,1-.81-2.44,4.93,4.93,0,0,1,.87-2.93A5.55,5.55,0,0,1,12.12,6.9,10.6,10.6,0,0,1,16,6.25a9,9,0,0,1,3.62.69,5.91,5.91,0,0,1,2.49,1.87,4.45,4.45,0,0,1,.93,2.74H18.56a1.4,1.4,0,0,0-.67-1.24A3.4,3.4,0,0,0,16,9.87a4.26,4.26,0,0,0-1.54.24,1.75,1.75,0,0,0-.9.7,2.12,2.12,0,0,0-.3,1.17,2.28,2.28,0,0,0,.27,1.13,1.76,1.76,0,0,0,.85.73,3.7,3.7,0,0,0,1.48.26h2.4ZM15.1,15.26h3.15V17.5h-2.4a4.26,4.26,0,0,0-1.64.27,1.85,1.85,0,0,0-.94.79A2.53,2.53,0,0,0,13,19.84a2.27,2.27,0,0,0,.35,1.32,1.89,1.89,0,0,0,1,.71,4.73,4.73,0,0,0,1.55.23,4.15,4.15,0,0,0,2.22-.49,1.57,1.57,0,0,0,.76-1.32h4.51a4.49,4.49,0,0,1-1,2.86A6,6,0,0,1,19.76,25a10.1,10.1,0,0,1-3.77.66,11.62,11.62,0,0,1-4-.63,5.5,5.5,0,0,1-2.6-1.87,5,5,0,0,1-.91-3.05,4.18,4.18,0,0,1,1.75-3.6A8.31,8.31,0,0,1,15.1,15.26Z"/></svg>